<svg xmlns="http://www.w3.org/2000/svg">
  <symbol id="edit" viewBox="0 0 15 15">
    <g>
      <path fill-rule="evenodd" clip-rule="evenodd" d="M13.3213 4.10853C13.5596 4.34683 13.5596 4.73177 13.3213 4.97007L12.2031 6.08825L9.91174 3.7969L11.0299 2.67873C11.2682 2.44042 11.6532 2.44042 11.8915 2.67873L13.3213 4.10853ZM2.5 13.5V11.2086L9.25795 4.4507L11.5493 6.74205L4.79135 13.5H2.5Z"/>
   </g>
  </symbol>

  <symbol id="logo" viewBox="0 0 45 45">
    <g>
      <path fill-rule="evenodd" clip-rule="evenodd" d="M0 22.25C0 9.96178 9.96198 0 22.2504 0C34.538 0 44.5 9.96178 44.5 22.25C44.5 25.0644 43.9774 27.7567 43.0241 30.2353C41.3767 27.6868 38.5104 26 35.25 26C30.1414 26 26 30.1414 26 35.25C26 38.5104 27.6868 41.3768 30.2354 43.0241C27.7569 43.9775 25.0647 44.5 22.2504 44.5C9.96198 44.5 0 34.5382 0 22.25ZM30.2354 43.0241C31.6801 43.9579 33.4018 44.5 35.25 44.5C40.3586 44.5 44.5 40.3586 44.5 35.25C44.5 33.4017 43.9579 31.6801 43.0241 30.2353C40.7682 36.1002 36.1001 40.7682 30.2354 43.0241Z" fill="#0EC261"/>
   </g>
  </symbol>

  <symbol id="list" viewBox="0 0 17 16">
    <g>
      <path fill-rule="evenodd" clip-rule="evenodd" d="M2.5 3.5V4.85714H7.83333V3.5H2.5ZM7.83333 7.57142H2.5V6.21428H7.83333V7.57142ZM2.5 10.2857H7.83333V8.92857H2.5V10.2857ZM2.5 13H7.83333V11.6429H2.5V13ZM14.5 3.5H9.16663V13H14.5V3.5Z"/>
   </g>
  </symbol>

  <symbol id="orders" viewBox="0 0 13 12">
    <g>
      <path fill-rule="evenodd" clip-rule="evenodd" d="M7.5 1H3.5C2.95 1 2.505 1.45 2.505 2L2.5 10C2.5 10.55 2.945 11 3.495 11H9.5C10.05 11 10.5 10.55 10.5 10V4L7.5 1ZM8.5 8H7V9.5H6V8H4.5V7H6V5.5H7V7H8.5V8ZM7 1.75V4.5H9.75L7 1.75Z"/>
   </g>
  </symbol>

  <symbol id="menu4" viewBox="0 0 18 18">
    <g>
      <path fill-rule="evenodd" clip-rule="evenodd" d="M6.17647 8.11538H2.5V3.5H6.17647V8.11538ZM6.17647 13.5H2.5V8.88461H6.17647V13.5ZM6.91174 13.5H10.5882V8.88461H6.91174V13.5ZM15 13.5H11.3235V8.88461H15V13.5ZM6.91174 8.11538H10.5882V3.5H6.91174V8.11538ZM11.3235 8.11538V3.5H15V8.11538H11.3235Z"/>
   </g>
  </symbol>

  <symbol id="search" viewBox="0 0 15 14">
    <g>
      <path fill-rule="evenodd" clip-rule="evenodd" d="M9.87336 8.80503H10.5057L14.5 12.8073L13.3073 14L9.30503 10.0057V9.37336L9.08891 9.14923C8.17639 9.93368 6.99171 10.4059 5.70297 10.4059C2.82933 10.4059 0.5 8.07662 0.5 5.20297C0.5 2.32933 2.82933 0 5.70297 0C8.57662 0 10.9059 2.32933 10.9059 5.20297C10.9059 6.49171 10.4337 7.67639 9.64923 8.58891L9.87336 8.80503ZM2.19702 5.30302C2.19702 7.29837 3.80773 8.90908 5.80308 8.90908C7.79844 8.90908 9.40914 7.29837 9.40914 5.30302C9.40914 3.30767 7.79844 1.69696 5.80308 1.69696C3.80773 1.69696 2.19702 3.30767 2.19702 5.30302Z" fill="#CACEDB"/>
   </g>
  </symbol>

  <symbol id="notifications" viewBox="0 0 26 26">
    <g>
      <path fill-rule="evenodd" clip-rule="evenodd" d="M15.375 9.04949V14.3727L17.5 16.502V17.5667H0.5V16.502L2.625 14.3727V9.04949C2.625 5.77038 4.35687 3.04489 7.40625 2.32093V1.59697C7.40625 0.713313 8.11812 0 9 0C9.88188 0 10.5938 0.713313 10.5938 1.59697V2.32093C13.6325 3.04489 15.375 5.78103 15.375 9.04949ZM11.2667 18.7C11.2667 19.9467 10.2467 20.9667 9 20.9667C7.742 20.9667 6.73334 19.9467 6.73334 18.7H11.2667Z" fill="#818EA3"/>
      <path fill-rule="evenodd" clip-rule="evenodd" d="M19 26C22.866 26 26 22.866 26 19C26 15.134 22.866 12 19 12C15.134 12 12 15.134 12 19C12 22.866 15.134 26 19 26Z" fill="#C4183C"/>
      <path d="M16.873 20.578C17.449 20.098 17.908 19.699 18.25 19.381C18.592 19.057 18.877 18.721 19.105 18.373C19.333 18.025 19.447 17.683 19.447 17.347C19.447 17.041 19.375 16.801 19.231 16.627C19.087 16.453 18.865 16.366 18.565 16.366C18.265 16.366 18.034 16.468 17.872 16.672C17.71 16.87 17.626 17.143 17.62 17.491H16.396C16.42 16.771 16.633 16.225 17.035 15.853C17.443 15.481 17.959 15.295 18.583 15.295C19.267 15.295 19.792 15.478 20.158 15.844C20.524 16.204 20.707 16.681 20.707 17.275C20.707 17.743 20.581 18.19 20.329 18.616C20.077 19.042 19.789 19.414 19.465 19.732C19.141 20.044 18.718 20.422 18.196 20.866H20.851V21.91H16.405V20.974L16.873 20.578Z" fill="white"/>
  </g>
  </symbol>
</svg>
