<svg xmlns="http://www.w3.org/2000/svg">
  <symbol id="location" viewBox="0 0 18 20">
    <g> 
      <path d="M16.0802 8.36364C16.0802 14.0909 8.54011 19 8.54011 19C8.54011 19 1 14.0909 1 8.36364C1 6.41068 1.7944 4.53771 3.20845 3.15676C4.62249 1.77581 6.54035 1 8.54011 1C10.5399 1 12.4577 1.77581 13.8718 3.15676C15.2858 4.53771 16.0802 6.41068 16.0802 8.36364Z"  stroke-width="2" fill="none" stroke-linecap="round" stroke-linejoin="round"/>
      <path d="M8.5401 10.8182C9.9282 10.8182 11.0535 9.71925 11.0535 8.36364C11.0535 7.00803 9.9282 5.90909 8.5401 5.90909C7.15201 5.90909 6.02673 7.00803 6.02673 8.36364C6.02673 9.71925 7.15201 10.8182 8.5401 10.8182Z"  stroke-width="2" stroke-linecap="round" stroke-linejoin="round" fill="none"/>
   </g>
  </symbol>
  <symbol id="arrow-right" viewBox="0 0 10 20">
    <g> 
      <path d="M1 1L9 10L1 19" fill="none" stroke-width="2" stroke-linecap="round" stroke-linejoin="round"/>
    </g>
  </symbol> 
  <symbol id="arrow-left" viewBox="0 0 10 20">
    <g>  
      <path d="M9 1L1 10L9 19" fill="none" stroke-width="2" stroke-linecap="round" stroke-linejoin="round"/>  
    </g>
  </symbol> 
</svg>